<?xml version="1.0" encoding="UTF-8" standalone="no"?>
<!DOCTYPE svg PUBLIC "-//W3C//DTD SVG 1.1//EN"
 "http://www.w3.org/Graphics/SVG/1.1/DTD/svg11.dtd">
<!-- Generated by graphviz version 2.47.0 (20210316.0004)
 -->
<!-- Title: dependencies Pages: 1 -->
<svg width="895pt" height="211pt"
 viewBox="0.00 0.00 895.00 211.00" xmlns="http://www.w3.org/2000/svg" xmlns:xlink="http://www.w3.org/1999/xlink">
<g id="graph0" class="graph" transform="scale(1 1) rotate(0) translate(4 207)">
<title>dependencies</title>
<polygon fill="white" stroke="transparent" points="-4,4 -4,-207 891,-207 891,4 -4,4"/>
<text text-anchor="start" x="422.51" y="-42.4" font-family="Times-12" font-weight="bold" font-size="14.00">Legend</text>
<polygon fill="#ffffb3" stroke="transparent" points="209.5,-10 209.5,-30 229.5,-30 229.5,-10 209.5,-10"/>
<text text-anchor="start" x="233.13" y="-15.4" font-family="Times-12" font-size="14.00"> &#160;Declarations</text>
<polygon fill="#8dd3c7" stroke="transparent" points="322.5,-10 322.5,-30 342.5,-30 342.5,-10 322.5,-10"/>
<text text-anchor="start" x="346.23" y="-15.4" font-family="Times-12" font-size="14.00"> &#160;Module</text>
<polygon fill="#80b1d3" stroke="transparent" points="408.5,-10 408.5,-30 428.5,-30 428.5,-10 408.5,-10"/>
<text text-anchor="start" x="432.28" y="-15.4" font-family="Times-12" font-size="14.00"> &#160;Bootstrap</text>
<polygon fill="#fdb462" stroke="transparent" points="505.5,-10 505.5,-30 525.5,-30 525.5,-10 505.5,-10"/>
<text text-anchor="start" x="529.17" y="-15.4" font-family="Times-12" font-size="14.00"> &#160;Providers</text>
<polygon fill="#fb8072" stroke="transparent" points="601.5,-10 601.5,-30 621.5,-30 621.5,-10 601.5,-10"/>
<text text-anchor="start" x="625.23" y="-15.4" font-family="Times-12" font-size="14.00"> &#160;Exports</text>
<g id="clust1" class="cluster">
<title>cluster_AuthModule</title>
<polygon fill="none" stroke="black" stroke-dasharray="1,5" points="8,-70 8,-195 879,-195 879,-70 8,-70"/>
</g>
<g id="clust3" class="cluster">
<title>cluster_AuthModule_imports</title>
<polygon fill="none" stroke="black" points="656,-78 656,-130 871,-130 871,-78 656,-78"/>
</g>
<g id="clust6" class="cluster">
<title>cluster_AuthModule_providers</title>
<polygon fill="none" stroke="black" points="16,-78 16,-130 648,-130 648,-78 16,-78"/>
</g>
<!-- CartsModule -->
<g id="node1" class="node">
<title>CartsModule</title>
<polygon fill="#8dd3c7" stroke="black" points="862.6,-122 859.6,-126 838.6,-126 835.6,-122 773.4,-122 773.4,-86 862.6,-86 862.6,-122"/>
<text text-anchor="middle" x="818" y="-99.8" font-family="Times,serif" font-size="14.00">CartsModule</text>
</g>
<!-- AuthModule -->
<g id="node3" class="node">
<title>AuthModule</title>
<polygon fill="#8dd3c7" stroke="black" points="557.55,-187 554.55,-191 533.55,-191 530.55,-187 470.45,-187 470.45,-151 557.55,-151 557.55,-187"/>
<text text-anchor="middle" x="514" y="-164.8" font-family="Times,serif" font-size="14.00">AuthModule</text>
</g>
<!-- CartsModule&#45;&gt;AuthModule -->
<g id="edge1" class="edge">
<title>CartsModule&#45;&gt;AuthModule</title>
<path fill="none" stroke="black" d="M818,-122.28C818,-143.32 818,-175 818,-175 818,-175 567.56,-175 567.56,-175"/>
<polygon fill="black" stroke="black" points="567.56,-171.5 557.56,-175 567.56,-178.5 567.56,-171.5"/>
</g>
<!-- UsersModule -->
<g id="node2" class="node">
<title>UsersModule</title>
<polygon fill="#8dd3c7" stroke="black" points="755.92,-122 752.92,-126 731.92,-126 728.92,-122 664.08,-122 664.08,-86 755.92,-86 755.92,-122"/>
<text text-anchor="middle" x="710" y="-99.8" font-family="Times,serif" font-size="14.00">UsersModule</text>
</g>
<!-- UsersModule&#45;&gt;AuthModule -->
<g id="edge2" class="edge">
<title>UsersModule&#45;&gt;AuthModule</title>
<path fill="none" stroke="black" d="M710,-122.02C710,-139.37 710,-163 710,-163 710,-163 567.99,-163 567.99,-163"/>
<polygon fill="black" stroke="black" points="567.99,-159.5 557.99,-163 567.99,-166.5 567.99,-159.5"/>
</g>
<!-- AuthService -->
<g id="node4" class="node">
<title>AuthService</title>
<ellipse fill="#fdb462" stroke="black" cx="581" cy="-104" rx="59.11" ry="18"/>
<text text-anchor="middle" x="581" y="-99.8" font-family="Times,serif" font-size="14.00">AuthService</text>
</g>
<!-- AuthService&#45;&gt;AuthModule -->
<g id="edge3" class="edge">
<title>AuthService&#45;&gt;AuthModule</title>
<path fill="none" stroke="black" d="M539.73,-117.15C539.73,-117.15 539.73,-140.69 539.73,-140.69"/>
<polygon fill="black" stroke="black" points="536.23,-140.69 539.73,-150.69 543.23,-140.69 536.23,-140.69"/>
</g>
<!-- JwtStrategy -->
<g id="node5" class="node">
<title>JwtStrategy</title>
<ellipse fill="#fdb462" stroke="black" cx="447" cy="-104" rx="56.76" ry="18"/>
<text text-anchor="middle" x="447" y="-99.8" font-family="Times,serif" font-size="14.00">JwtStrategy</text>
</g>
<!-- JwtStrategy&#45;&gt;AuthModule -->
<g id="edge4" class="edge">
<title>JwtStrategy&#45;&gt;AuthModule</title>
<path fill="none" stroke="black" d="M486.93,-116.84C486.93,-116.84 486.93,-140.52 486.93,-140.52"/>
<polygon fill="black" stroke="black" points="483.43,-140.52 486.93,-150.52 490.43,-140.52 483.43,-140.52"/>
</g>
<!-- SocialAccountsService -->
<g id="node6" class="node">
<title>SocialAccountsService</title>
<ellipse fill="#fdb462" stroke="black" cx="272" cy="-104" rx="100.7" ry="18"/>
<text text-anchor="middle" x="272" y="-99.8" font-family="Times,serif" font-size="14.00">SocialAccountsService</text>
</g>
<!-- SocialAccountsService&#45;&gt;AuthModule -->
<g id="edge5" class="edge">
<title>SocialAccountsService&#45;&gt;AuthModule</title>
<path fill="none" stroke="black" d="M272,-122.02C272,-139.37 272,-163 272,-163 272,-163 460.18,-163 460.18,-163"/>
<polygon fill="black" stroke="black" points="460.18,-166.5 470.18,-163 460.18,-159.5 460.18,-166.5"/>
</g>
<!-- TokenService -->
<g id="node7" class="node">
<title>TokenService</title>
<ellipse fill="#fdb462" stroke="black" cx="89" cy="-104" rx="64.83" ry="18"/>
<text text-anchor="middle" x="89" y="-99.8" font-family="Times,serif" font-size="14.00">TokenService</text>
</g>
<!-- TokenService&#45;&gt;AuthModule -->
<g id="edge6" class="edge">
<title>TokenService&#45;&gt;AuthModule</title>
<path fill="none" stroke="black" d="M89,-122.28C89,-143.32 89,-175 89,-175 89,-175 460.12,-175 460.12,-175"/>
<polygon fill="black" stroke="black" points="460.12,-178.5 470.12,-175 460.12,-171.5 460.12,-178.5"/>
</g>
</g>
</svg>
