<?xml version="1.0" encoding="UTF-8" standalone="no"?>
<!DOCTYPE svg PUBLIC "-//W3C//DTD SVG 1.1//EN"
 "http://www.w3.org/Graphics/SVG/1.1/DTD/svg11.dtd">
<!-- Generated by graphviz version 2.47.0 (20210316.0004)
 -->
<!-- Title: dependencies Pages: 1 -->
<svg width="828pt" height="211pt"
 viewBox="0.00 0.00 828.00 211.00" xmlns="http://www.w3.org/2000/svg" xmlns:xlink="http://www.w3.org/1999/xlink">
<g id="graph0" class="graph" transform="scale(1 1) rotate(0) translate(4 207)">
<title>dependencies</title>
<polygon fill="white" stroke="transparent" points="-4,4 -4,-207 824,-207 824,4 -4,4"/>
<text text-anchor="start" x="389.01" y="-42.4" font-family="Times-12" font-weight="bold" font-size="14.00">Legend</text>
<polygon fill="#ffffb3" stroke="transparent" points="176,-10 176,-30 196,-30 196,-10 176,-10"/>
<text text-anchor="start" x="199.63" y="-15.4" font-family="Times-12" font-size="14.00"> &#160;Declarations</text>
<polygon fill="#8dd3c7" stroke="transparent" points="289,-10 289,-30 309,-30 309,-10 289,-10"/>
<text text-anchor="start" x="312.73" y="-15.4" font-family="Times-12" font-size="14.00"> &#160;Module</text>
<polygon fill="#80b1d3" stroke="transparent" points="375,-10 375,-30 395,-30 395,-10 375,-10"/>
<text text-anchor="start" x="398.78" y="-15.4" font-family="Times-12" font-size="14.00"> &#160;Bootstrap</text>
<polygon fill="#fdb462" stroke="transparent" points="472,-10 472,-30 492,-30 492,-10 472,-10"/>
<text text-anchor="start" x="495.67" y="-15.4" font-family="Times-12" font-size="14.00"> &#160;Providers</text>
<polygon fill="#fb8072" stroke="transparent" points="568,-10 568,-30 588,-30 588,-10 568,-10"/>
<text text-anchor="start" x="591.73" y="-15.4" font-family="Times-12" font-size="14.00"> &#160;Exports</text>
<g id="clust1" class="cluster">
<title>cluster_OrdersModule</title>
<polygon fill="none" stroke="black" stroke-dasharray="1,5" points="8,-70 8,-195 812,-195 812,-70 8,-70"/>
</g>
<g id="clust6" class="cluster">
<title>cluster_OrdersModule_providers</title>
<polygon fill="none" stroke="black" points="656,-78 656,-130 804,-130 804,-78 656,-78"/>
</g>
<g id="clust3" class="cluster">
<title>cluster_OrdersModule_imports</title>
<polygon fill="none" stroke="black" points="16,-78 16,-130 648,-130 648,-78 16,-78"/>
</g>
<!-- AddressesModule -->
<g id="node1" class="node">
<title>AddressesModule</title>
<polygon fill="#8dd3c7" stroke="black" points="639.58,-122 636.58,-126 615.58,-126 612.58,-122 522.42,-122 522.42,-86 639.58,-86 639.58,-122"/>
<text text-anchor="middle" x="581" y="-99.8" font-family="Times,serif" font-size="14.00">AddressesModule</text>
</g>
<!-- OrdersModule -->
<g id="node6" class="node">
<title>OrdersModule</title>
<polygon fill="#8dd3c7" stroke="black" points="452.64,-187 449.64,-191 428.64,-191 425.64,-187 355.36,-187 355.36,-151 452.64,-151 452.64,-187"/>
<text text-anchor="middle" x="404" y="-164.8" font-family="Times,serif" font-size="14.00">OrdersModule</text>
</g>
<!-- AddressesModule&#45;&gt;OrdersModule -->
<g id="edge1" class="edge">
<title>AddressesModule&#45;&gt;OrdersModule</title>
<path fill="none" stroke="black" d="M581,-122.02C581,-139.37 581,-163 581,-163 581,-163 462.83,-163 462.83,-163"/>
<polygon fill="black" stroke="black" points="462.83,-159.5 452.83,-163 462.83,-166.5 462.83,-159.5"/>
</g>
<!-- GhnModule -->
<g id="node2" class="node">
<title>GhnModule</title>
<polygon fill="#8dd3c7" stroke="black" points="504.66,-122 501.66,-126 480.66,-126 477.66,-122 421.34,-122 421.34,-86 504.66,-86 504.66,-122"/>
<text text-anchor="middle" x="463" y="-99.8" font-family="Times,serif" font-size="14.00">GhnModule</text>
</g>
<!-- GhnModule&#45;&gt;OrdersModule -->
<g id="edge2" class="edge">
<title>GhnModule&#45;&gt;OrdersModule</title>
<path fill="none" stroke="black" d="M437,-122.11C437,-122.11 437,-140.99 437,-140.99"/>
<polygon fill="black" stroke="black" points="433.5,-140.99 437,-150.99 440.5,-140.99 433.5,-140.99"/>
</g>
<!-- InventoryModule -->
<g id="node3" class="node">
<title>InventoryModule</title>
<polygon fill="#8dd3c7" stroke="black" points="402.98,-122 399.98,-126 378.98,-126 375.98,-122 289.02,-122 289.02,-86 402.98,-86 402.98,-122"/>
<text text-anchor="middle" x="346" y="-99.8" font-family="Times,serif" font-size="14.00">InventoryModule</text>
</g>
<!-- InventoryModule&#45;&gt;OrdersModule -->
<g id="edge3" class="edge">
<title>InventoryModule&#45;&gt;OrdersModule</title>
<path fill="none" stroke="black" d="M379.08,-122.11C379.08,-122.11 379.08,-140.99 379.08,-140.99"/>
<polygon fill="black" stroke="black" points="375.58,-140.99 379.08,-150.99 382.58,-140.99 375.58,-140.99"/>
</g>
<!-- NotificationsModule -->
<g id="node4" class="node">
<title>NotificationsModule</title>
<polygon fill="#8dd3c7" stroke="black" points="271.14,-122 268.14,-126 247.14,-126 244.14,-122 138.86,-122 138.86,-86 271.14,-86 271.14,-122"/>
<text text-anchor="middle" x="205" y="-99.8" font-family="Times,serif" font-size="14.00">NotificationsModule</text>
</g>
<!-- NotificationsModule&#45;&gt;OrdersModule -->
<g id="edge4" class="edge">
<title>NotificationsModule&#45;&gt;OrdersModule</title>
<path fill="none" stroke="black" d="M205,-122.02C205,-139.37 205,-163 205,-163 205,-163 345.32,-163 345.32,-163"/>
<polygon fill="black" stroke="black" points="345.32,-166.5 355.32,-163 345.32,-159.5 345.32,-166.5"/>
</g>
<!-- VnpayModule -->
<g id="node5" class="node">
<title>VnpayModule</title>
<polygon fill="#8dd3c7" stroke="black" points="120.37,-122 117.37,-126 96.37,-126 93.37,-122 23.63,-122 23.63,-86 120.37,-86 120.37,-122"/>
<text text-anchor="middle" x="72" y="-99.8" font-family="Times,serif" font-size="14.00">VnpayModule</text>
</g>
<!-- VnpayModule&#45;&gt;OrdersModule -->
<g id="edge5" class="edge">
<title>VnpayModule&#45;&gt;OrdersModule</title>
<path fill="none" stroke="black" d="M72,-122.28C72,-143.32 72,-175 72,-175 72,-175 345.01,-175 345.01,-175"/>
<polygon fill="black" stroke="black" points="345.01,-178.5 355.01,-175 345.01,-171.5 345.01,-178.5"/>
</g>
<!-- OrdersService -->
<g id="node7" class="node">
<title>OrdersService</title>
<ellipse fill="#fdb462" stroke="black" cx="730" cy="-104" rx="66.03" ry="18"/>
<text text-anchor="middle" x="730" y="-99.8" font-family="Times,serif" font-size="14.00">OrdersService</text>
</g>
<!-- OrdersService&#45;&gt;OrdersModule -->
<g id="edge6" class="edge">
<title>OrdersService&#45;&gt;OrdersModule</title>
<path fill="none" stroke="black" d="M730,-122.28C730,-143.32 730,-175 730,-175 730,-175 462.81,-175 462.81,-175"/>
<polygon fill="black" stroke="black" points="462.81,-171.5 452.81,-175 462.81,-178.5 462.81,-171.5"/>
</g>
</g>
</svg>
